<svg width="379" height="407" viewBox="0 0 379 407" fill="none" xmlns="http://www.w3.org/2000/svg">
<path d="M141.959 25.5078C145.421 19.0306 153.005 13.7895 162.371 15.2607L162.818 15.3359L164.229 15.5947C193.733 21.1444 215.007 33.7584 230.215 50.6611C245.427 67.5688 253.711 87.8135 258.933 106.928C264.052 125.668 266.649 145.265 269.255 159.395C270.625 166.824 271.976 172.76 273.59 177.379C275.246 182.118 276.729 184.116 277.521 184.852C285.768 192.509 293.148 193.234 298.549 191.976C304.734 190.535 309.535 186.234 311.47 182.293L311.728 181.784C314.461 176.561 319.221 172.55 324.692 170.752C330.757 168.759 339.955 169.145 346.147 177.006C357.637 191.592 363.144 212.71 363.35 234.658C363.559 256.947 358.354 281.762 346.528 305.007C322.473 352.289 271.681 391.803 187.305 391.803C118.613 391.803 67.6433 352.848 39.7959 304.993C12.3968 257.909 5.66173 198.917 30.0156 157.243L30.2559 156.843C32.7847 152.736 36.7015 149.665 41.4678 148.347C46.1321 147.057 50.5881 147.713 54.0947 149.125C60.8507 151.845 66.6857 158.45 67.3418 167.233C68.3063 180.149 75.3731 190.368 85.0352 196.005C84.6355 155.185 112.789 128.588 131.052 108.896C142.309 96.7568 149.619 87.7308 152.339 78.7061C154.541 71.3991 154.291 61.961 143.518 47.3047C138.431 40.3849 138.574 31.8412 141.959 25.5078Z" fill="url(#paint0_linear_603_9345)" stroke="white" stroke-width="30" stroke-linecap="round"/>
<path d="M190.194 363.844C106.869 363.844 94.014 300.949 109.479 264.979C111.483 260.318 119.58 262.859 121.861 267.392C127.26 278.124 138.566 284.971 148.179 274.372C161.933 259.206 105.856 221.877 191.325 119.274C194.745 115.168 201.714 118.855 200.808 124.121C190.229 185.624 229.516 206.973 245.194 237.844C262.594 272.104 287.194 363.844 190.194 363.844Z" fill="url(#paint1_linear_603_9345)"/>
<defs>
<linearGradient id="paint0_linear_603_9345" x1="184.814" y1="92.3437" x2="184.359" y2="376.799" gradientUnits="userSpaceOnUse">
<stop stop-color="#D25762"/>
<stop offset="0.352416" stop-color="#E27037"/>
<stop offset="1" stop-color="#EFAF90"/>
</linearGradient>
<linearGradient id="paint1_linear_603_9345" x1="182.814" y1="133.344" x2="186.273" y2="346.844" gradientUnits="userSpaceOnUse">
<stop stop-color="#EDB73B"/>
<stop offset="0.697115" stop-color="#FAE9C4"/>
<stop offset="0.860577" stop-color="#FFFBF5" stop-opacity="0.8"/>
<stop offset="1" stop-color="#FFFBF5" stop-opacity="0.5"/>
</linearGradient>
</defs>
</svg>
